# xmcd CD Database Entry
#
# Track frame offsets:
# 150
# 19200
# 39345
# 61542
# 82515
# 104092
# 120477
# 140042
# 160212
# 178890
#
# Disc length: 2630 seconds
#
# Revision: 3
# Processed by: cddbd v1.4PL0 Copyright (c) Steve Scherf et al.
# Submitted via: tcd 2.0b
#
DISCID=7a0a440a
DTITLE=Afterglow - A Christmas Wish
DYEAR=1900
DGENRE=
TTITLE0=Christmas Tonight
TTITLE1=The Christmas Song
TTITLE2=The Holy Child
TTITLE3=A Christmas Wish
TTITLE4=Silent Night
TTITLE5=White Christmas
TTITLE6=It Won't Be Christmas
TTITLE7=I'll Be Home for Christmas
TTITLE8=O Little Town of Bethlehem
TTITLE9=Have Yourself a Merry Little Christmas
EXTD=
EXTT0=
EXTT1=
EXTT2=
EXTT3=
EXTT4=
EXTT5=
EXTT6=
EXTT7=
EXTT8=
EXTT9=
PLAYORDER=
